#!OML:ASF E:\acrobat2\Project_11_07_03\Capture day 1\Session 1\Acrobat.ASF
:FULLY-SPECIFIED
:DEGREES
1152
root 7.09898 21.4006 26.0313 377.781 -79.4613 -9.09837
lowerback -0.73024 1.68172 2.67001
upperback 1.15081 2.2209 -1.63977
thorax 1.75799 1.15377 -3.12905
lowerneck 1.11479 -2.96058 -0.79225
upperneck 1.84312 -3.93727 -3.25583
head 0.325142 -1.99335 -0.856805
rclavicle -1.76918e-014 1.23246e-014
rhumerus -61.4162 -23.2868 -59.7317
rradius 14.1252
rwrist 33.6097
rhand 11.2708 -31.851
rfingers 7.12502
rthumb 36.3306 -58.0856
lclavicle -1.76918e-014 1.23246e-014
lhumerus -44.5874 6.17269 67.8257
lradius 19.9828
lwrist 5.7596
lhand 8.45182 -15.1518
lfingers 7.12502
lthumb 33.6565 11.7075
rfemur 10.6498 -7.07427 21.5711
rtibia 4.45278e-014
rfoot -1.32409 -15.7846
rtoes 34.6117
lfemur -27.8598 0.534156 -13.9695
ltibia 30.626
lfoot -13.6233 -14.2023
ltoes 0.791477
1153
root 7.05592 21.4339 26.0696 378.853 -79.8917 -10.0215
lowerback -0.814487 1.62023 2.57324
upperback 1.16384 2.1386 -1.65578
thorax 1.80943 1.11231 -3.09072
lowerneck 1.05696 -2.84012 -0.669507
upperneck 1.75598 -3.77641 -3.19532
head 0.309096 -1.91072 -0.858693
rclavicle 4.36332e-014 7.95139e-015
rhumerus -61.9985 -22.6761 -59.6186
rradius 14.1777
rwrist 32.9753
rhand 11.9753 -32.1307
rfingers 7.12502
rthumb 36.9974 -58.1958
lclavicle 4.36332e-014 7.95139e-015
lhumerus -45.016 6.76071 67.2466
lradius 19.4461
lwrist 4.73555
lhand 8.81662 -14.8727
lfingers 7.12502
lthumb 34.0031 11.9104
rfemur 10.4989 -6.5814 21.5607
rtibia -2.22639e-014
rfoot -0.74036 -16.1826
rtoes 33.7561
lfemur -27.3083 0.417244 -13.9063
ltibia 29.8361
lfoot -13.9584 -13.6143
ltoes 0.274029
1154
root 7.0148 21.4683 26.1074 380.044 -80.347 -11.0608
lowerback -0.895522 1.57756 2.49088
upperback 1.16989 2.08168 -1.6911
thorax 1.85527 1.08364 -3.08005
lowerneck 1.02601 -2.73774 -0.558913
upperneck 1.67393 -3.64024 -3.09723
head 0.290857 -1.84025 -0.846601
rclavicle -6.95746e-016 -2.78299e-015
rhumerus -62.5322 -22.1238 -59.4847
rradius 14.2329
rwrist 32.4024
rhand 12.6287 -32.3702
rfingers 7.12502
rthumb 37.6151 -58.2732
lclavicle -6.95746e-016 -2.78299e-015
lhumerus -45.4 7.29172 66.6714
lradius 18.9316
lwrist 3.61752
lhand 9.2814 -14.5792
lfingers 7.12502
lthumb 34.4445 12.1048
rfemur 10.3305 -6.06182 21.5496
rtibia -2.54444e-014
rfoot -0.116649 -16.6014
rtoes 32.8606
lfemur -26.7976 0.306277 -13.8547
ltibia 29.1033
lfoot -14.3114 -12.9609
ltoes -0.349817
1155
root 6.97592 21.5027 26.1449 381.179 -80.8341 -12.0459
lowerback -0.966905 1.55509 2.39656
upperback 1.17289 2.05261 -1.75909
thorax 1.89546 1.06874 -3.09595
lowerneck 1.02354 -2.65692 -0.440084
upperneck 1.58101 -3.53339 -2.99387
head 0.264234 -1.78409 -0.833655
rclavicle 9.0447e-015 -8.34896e-015
rhumerus -63.0428 -21.6766 -59.2795
rradius 14.2925
rwrist 31.9472
rhand 13.12 -32.5938
rfingers 7.12502
rthumb 38.0792 -58.3715
lclavicle 9.0447e-015 -8.34896e-015
lhumerus -45.7264 7.6878 66.1544
lradius 18.4537
lwrist 2.50039
lhand 9.82088 -14.273
lfingers 7.12502
lthumb 34.9564 12.2932
rfemur 10.1529 -5.51947 21.5004
rtibia 1.90833e-014
rfoot 0.486684 -17.0671
rtoes 32.1647
lfemur -26.3195 0.213738 -13.8532
ltibia 28.4196
lfoot -14.6605 -12.2706
ltoes -1.00078
1156
root 6.93894 21.5358 26.182 382.204 -81.3492 -12.9241
lowerback -1.0353 1.54579 2.27065
upperback 1.18036 2.04209 -1.85365
thorax 1.9398 1.06284 -3.12098
lowerneck 1.03175 -2.59644 -0.315008
upperneck 1.47855 -3.4538 -2.90312
head 0.232305 -1.74154 -0.825374
rclavicle 6.06293e-015 1.03368e-014
rhumerus -63.513 -21.3518 -58.964
rradius 14.3338
rwrist 31.6417
rhand 13.3199 -32.8423
rfingers 7.12502
rthumb 38.2679 -58.5681
lclavicle 6.06293e-015 1.03368e-014
lhumerus -45.9867 7.9246 65.7457
lradius 18.0257
lwrist 1.47567
lhand 10.4162 -13.933
lfingers 7.12502
lthumb 35.5209 12.4998
rfemur 9.97251 -4.96196 21.408
rtibia 9.54166e-015
rfoot 1.04281 -17.602
rtoes 31.6908
lfemur -25.8647 0.139175 -13.9066
ltibia 27.7744
lfoot -14.9992 -11.5703
ltoes -1.65685
1157
root 6.90335 21.5671 26.2182 383.092 -81.8958 -13.6717
lowerback -1.10074 1.53955 2.08594
upperback 1.19764 2.03706 -1.96603
thorax 1.99153 1.05897 -3.13113
lowerneck 1.02028 -2.54034 -0.201687
upperneck 1.38617 -3.37955 -2.79819
head 0.207066 -1.70208 -0.811267
rclavicle 1.28216e-014 6.36111e-015
rhumerus -63.8975 -21.1169 -58.5739
rradius 14.3399
rwrist 31.456
rhand 13.2272 -33.162
rfingers 7.12502
rthumb 38.1804 -58.9119
lclavicle 1.28216e-014 6.36111e-015
lhumerus -46.1844 8.01483 65.4648
lradius 17.6597
lwrist 0.601222
lhand 11.0843 -13.5407
lfingers 7.12502
lthumb 36.154 12.7378
rfemur 9.79362 -4.38828 21.2712
rtibia -2.22639e-014
rfoot 1.57177 -18.2012
rtoes 31.3453
lfemur -25.4222 0.0754005 -14.0093
ltibia 27.159
lfoot -15.3272 -10.8721
ltoes -2.32006
1158
root 6.86878 21.5966 26.2531 383.902 -82.4772 -14.3579
lowerback -1.15835 1.53286 1.8366
upperback 1.2291 2.03299 -2.08532
thorax 2.05145 1.05466 -3.11205
lowerneck 0.979345 -2.47731 -0.122381
upperneck 1.31212 -3.29563 -2.65638
head 0.193528 -1.65839 -0.78089
rclavicle 1.94809e-014 8.74653e-015
rhumerus -64.1731 -20.9277 -58.1666
rradius 14.3301
rwrist 31.329
rhand 12.8815 -33.5383
rfingers 7.12502
rthumb 37.854 -59.3771
lclavicle 1.94809e-014 8.74653e-015
lhumerus -46.331 8.02311 65.2782
lradius 17.3587
lwrist -0.193074
lhand 11.8541 -13.1272
lfingers 7.12502
lthumb 36.8827 12.9674
rfemur 9.62264 -3.7922 21.0998
rtibia -1.90833e-014
rfoot 2.1137 -18.8494
rtoes 31.0228
lfemur -24.9786 0.0135836 -14.1431
ltibia 26.5698
lfoot -15.649 -10.1684
ltoes -3.05259
1159
root 6.8349 21.6234 26.2865 384.836 -83.0875 -15.1886
lowerback -1.2103 1.52439 1.54381
upperback 1.27496 2.02769 -2.19869
thorax 2.12116 1.04896 -3.06244
lowerneck 0.927108 -2.40587 -0.0865217
upperneck 1.24142 -3.20082 -2.48069
head 0.18418 -1.60958 -0.733197
rclavicle 1.53064e-014 -2.54444e-014
rhumerus -64.3447 -20.7768 -57.7383
rradius 14.3132
rwrist 31.2679
rhand 12.3834 -33.8801
rfingers 7.12502
rthumb 37.3833 -59.8445
lclavicle 1.53064e-014 -2.54444e-014
lhumerus -46.443 8.01212 65.1454
lradius 17.1257
lwrist -1.00267
lhand 12.7399 -12.7346
lfingers 7.12502
lthumb 37.7201 13.1403
rfemur 9.46314 -3.16894 20.9175
rtibia 1.27222e-014
rfoot 2.68707 -19.5186
rtoes 30.7393
lfemur -24.5283 -0.0630685 -14.2738
ltibia 26.0071
lfoot -15.9721 -9.44925
ltoes -3.8529
1160
root 6.80196 21.647 26.3183 386.186 -83.7187 -16.457
lowerback -1.24988 1.51332 1.23902
upperback 1.32642 2.01949 -2.30165
thorax 2.18875 1.0412 -2.99575
lowerneck 0.881062 -2.32319 -0.0850175
upperneck 1.16974 -3.09145 -2.27446
head 0.174567 -1.5536 -0.670496
rclavicle 8.15017e-015 -1.66979e-014
rhumerus -64.4233 -20.6498 -57.3071
rradius 14.2964
rwrist 31.2717
rhand 11.9178 -34.1228
rfingers 7.12502
rthumb 36.943 -60.202
lclavicle 8.15017e-015 -1.66979e-014
lhumerus -46.5352 7.98288 65.0536
lradius 16.9632
lwrist -1.83116
lhand 13.7541 -12.3821
lfingers 7.12502
lthumb 38.6776 13.2295
rfemur 9.31636 -2.5133 20.7497
rtibia -2.22639e-014
rfoot 3.26833 -20.1918
rtoes 30.6717
lfemur -24.0744 -0.16749 -14.3675
ltibia 25.4735
lfoot -16.3037 -8.70772
ltoes -4.62756
1161
root 6.77043 21.6673 26.3487 388.284 -84.3588 -18.4902
lowerback -1.27311 1.50703 0.956609
upperback 1.37646 2.01743 -2.39696
thorax 2.24666 1.0364 -2.93407
lowerneck 0.853448 -2.23832 -0.102211
upperneck 1.09451 -2.97952 -2.04343
head 0.161334 -1.49632 -0.597025
rclavicle 1.72943e-014 -2.14687e-014
rhumerus -64.4196 -20.518 -56.9451
rradius 14.3094
rwrist 31.2585
rhand 11.6156 -34.2539
rfingers 7.12502
rthumb 36.657 -60.4062
lclavicle 1.72943e-014 -2.14687e-014
lhumerus -46.6003 7.84396 65.0536
lradius 16.8792
lwrist -2.57375
lhand 14.8904 -12.0798
lfingers 7.12502
lthumb 39.7485 13.2216
rfemur 7.57277 -1.92762 20.6371
rtibia 3.07335
rfoot 2.57507 -19.9935
rtoes 30.8672
lfemur -23.6267 -0.299828 -14.4053
ltibia 24.977
lfoot -16.6567 -7.94109
ltoes -5.31222
1162
root 6.74071 21.6847 26.3782 391.324 -84.9994 -21.4766
lowerback -1.28289 1.51181 0.698462
upperback 1.42263 2.02968 -2.4896
thorax 2.29466 1.03876 -2.88324
lowerneck 0.856425 -2.15953 -0.119177
upperneck 1.00226 -2.87607 -1.80475
head 0.137776 -1.44311 -0.520937
rclavicle 2.74323e-014 -1.90833e-014
rhumerus -64.3285 -20.3454 -56.7312
rradius 14.3704
rwrist 31.127
rhand 11.5627 -34.28
rfingers 7.12502
rthumb 36.607 -60.445
lclavicle 2.74323e-014 -1.90833e-014
lhumerus -46.6267 7.47623 65.2328
lradius 16.8856
lwrist -3.07433
lhand 16.1028 -11.8448
lfingers 7.12502
lthumb 40.8887 13.1068
rfemur 4.34062 -1.40886 20.516
rtibia 9.00408
rfoot 0.733479 -18.9343
rtoes 31.2149
lfemur -23.1963 -0.460808 -14.3991
ltibia 24.5279
lfoot -17.0504 -7.15174
ltoes -5.89547
1163
root 6.7129 21.6994 26.4067 395.555 -85.6313 -25.6626
lowerback -1.27896 1.5257 0.450237
upperback 1.46376 2.0537 -2.58085
thorax 2.33067 1.04681 -2.83662
lowerneck 0.88268 -2.09176 -0.116832
upperneck 0.886676 -2.78735 -1.5834
head 0.102596 -1.39717 -0.453037
rclavicle -2.42517e-014 -3.18055e-015
rhumerus -64.1353 -20.1021 -56.7078
rradius 14.4752
rwrist 30.8239
rhand 11.7353 -34.2407
rfingers 7.12502
rthumb 36.7703 -60.3642
lclavicle -2.42517e-014 -3.18055e-015
lhumerus -46.6142 6.81762 65.6444
lradius 16.9845
lwrist -3.19939
lhand 17.3207 -11.6578
lfingers 7.12502
lthumb 42.0315 12.9217
rfemur 2.31624 -0.794453 20.3408
rtibia 12.6259
rfoot -0.159939 -18.4822
rtoes 31.6573
lfemur -22.7867 -0.643221 -14.3655
ltibia 24.1308
lfoot -17.4922 -6.35395
ltoes -6.32943
1164
root 6.68686 21.7113 26.4344 401.562 -86.2361 -31.6287
lowerback -1.26678 1.5467 0.210402
upperback 1.50163 2.08682 -2.66825
thorax 2.35922 1.05926 -2.79072
lowerneck 0.914082 -2.03777 -0.100393
upperneck 0.752938 -2.71677 -1.37862
head 0.0604817 -1.36041 -0.392479
rclavicle 5.76476e-015 -2.78299e-014
rhumerus -63.8323 -19.7782 -56.8833
rradius 14.6168
rwrist 30.3324
rhand 11.9379 -34.1905
rfingers 7.12502
rthumb 36.962 -60.2648
lclavicle 5.76476e-015 -2.78299e-014
lhumerus -46.5663 5.8927 66.2721
lradius 17.1689
lwrist -2.92221
lhand 18.4837 -11.4685
lfingers 7.12502
lthumb 43.12 12.7349
rfemur 0.600609 -0.874876 20.1307
rtibia 15.652
rfoot -0.381767 -17.5745
rtoes 32.1082
lfemur -22.3958 -0.843662 -14.3047
ltibia 23.7782
lfoot -17.9861 -5.54991
ltoes -6.5721
1165
root 6.66226 21.7208 26.4613 409.82 -86.795 -39.8511
lowerback -1.25343 1.57008 -0.0412318
upperback 1.54128 2.1232 -2.75886
thorax 2.38865 1.07293 -2.74147
lowerneck 0.937512 -1.98612 -0.0910908
upperneck 0.617939 -2.64897 -1.1559
head 0.0195756 -1.32535 -0.325669
rclavicle -3.18055e-015 -3.18055e-015
rhumerus -63.4284 -19.3972 -57.2198
rradius 14.7865
rwrist 29.6972
rhand 12.0462 -34.1535
rfingers 7.12502
rthumb 37.0645 -60.2013
lclavicle -3.18055e-015 -3.18055e-015
lhumerus -46.4877 4.80406 67.0268
lradius 17.4192
lwrist -2.33383
lhand 19.5569 -11.2387
lfingers 7.12502
lthumb 44.1221 12.5985
rfemur -0.971049 -0.962691 19.915
rtibia 18.3967
rfoot -0.465321 -16.6968
rtoes 32.4955
lfemur -22.0153 -1.07842 -14.2413
ltibia 23.4551
lfoot -18.5308 -4.7272
ltoes -6.6915
